<?xml version="1.0" encoding="iso-8859-1"?>
<!-- Generator: Adobe Illustrator 19.0.0, SVG Export Plug-In . SVG Version: 6.00 Build 0)  -->
<svg version="1.1" id="Capa_1" xmlns="http://www.w3.org/2000/svg" xmlns:xlink="http://www.w3.org/1999/xlink" x="0px" y="0px"
	 viewBox="0 0 512.001 512.001" style="enable-background:new 0 0 512.001 512.001;" xml:space="preserve">
<circle style="fill:#F5A800;" cx="257.067" cy="274.95" r="159.693"/>
<path style="fill:#FDD93B;" d="M257.065,414.294c-76.834,0-139.344-62.51-139.344-139.344s62.509-139.344,139.344-139.344
	s139.344,62.509,139.344,139.344S333.899,414.294,257.065,414.294z"/>
<path d="M423.243,108.24c-40.719-40.719-93.671-64.753-150.568-68.69l28.761-28.761L290.646,0l-48.12,48.12l48.12,48.12
	l10.789-10.789l-30.726-30.726c115.169,7.597,206.549,103.699,206.549,220.758c0,122.002-99.256,221.258-221.258,221.258
	S34.742,397.486,34.742,275.483c0-4.907,0.163-9.869,0.483-14.745l-15.227-1.001c-0.342,5.209-0.516,10.507-0.516,15.746
	c0,63.176,24.602,122.571,69.275,167.243s104.067,69.275,167.243,69.275s122.571-24.602,167.243-69.275
	s69.275-104.067,69.275-167.243S467.916,152.911,423.243,108.24z"/>
<path d="M73.364,150.546l-12.587-8.626c-2.963,4.323-5.815,8.795-8.475,13.293l13.133,7.77
	C67.924,158.776,70.592,154.592,73.364,150.546z"/>
<path d="M91.611,127.387l-11.335-10.218c-3.504,3.887-6.923,7.942-10.16,12.051l11.986,9.443
	C85.133,134.818,88.331,131.025,91.611,127.387z"/>
<path d="M39.11,231.506l-14.958-3.016c-1.035,5.129-1.908,10.363-2.598,15.556l15.126,2.009
	C37.326,241.198,38.143,236.303,39.11,231.506z"/>
<path d="M112.757,106.845l-9.883-11.626c-3.985,3.388-7.908,6.954-11.663,10.601l10.633,10.945
	C105.358,113.351,109.029,110.015,112.757,106.845z"/>
<path d="M58.353,175.918l-13.622-6.876c-2.362,4.679-4.593,9.493-6.632,14.308l14.052,5.949
	C54.058,184.797,56.145,180.295,58.353,175.918z"/>
<path d="M46.862,203.065l-14.419-4.993c-1.713,4.944-3.28,10.015-4.657,15.069l14.722,4.012
	C43.797,212.428,45.262,207.689,46.862,203.065z"/>
<path d="M257.065,442.27c92.26,0,167.319-75.059,167.319-167.319s-75.059-167.319-167.319-167.319S89.745,182.69,89.745,274.95
	S164.804,442.27,257.065,442.27z M257.065,122.89c83.846,0,152.06,68.214,152.06,152.06s-68.214,152.06-152.06,152.06
	c-83.845,0-152.06-68.214-152.06-152.06S173.219,122.89,257.065,122.89z"/>
<rect x="248.369" y="140.69" width="15.259" height="15.259"/>
<rect x="248.369" y="392.975" width="15.259" height="15.259"/>
<rect x="122.226" y="266.832" width="15.259" height="15.259"/>
<rect x="374.512" y="266.832" width="15.259" height="15.259"/>
<polygon points="306.664,311.796 263.63,268.762 263.63,184.436 248.371,184.436 248.371,275.083 295.874,322.586 "/>
<g>
</g>
<g>
</g>
<g>
</g>
<g>
</g>
<g>
</g>
<g>
</g>
<g>
</g>
<g>
</g>
<g>
</g>
<g>
</g>
<g>
</g>
<g>
</g>
<g>
</g>
<g>
</g>
<g>
</g>
</svg>
