<?xml version="1.0" encoding="iso-8859-1"?>
<!-- Generator: Adobe Illustrator 19.0.0, SVG Export Plug-In . SVG Version: 6.00 Build 0)  -->
<svg version="1.1" id="Capa_1" xmlns="http://www.w3.org/2000/svg" xmlns:xlink="http://www.w3.org/1999/xlink" x="0px" y="0px"
	 viewBox="0 0 496.485 496.485" style="enable-background:new 0 0 496.485 496.485;" xml:space="preserve">
<circle style="fill:#E1E6E9;" cx="210.23" cy="171.442" r="171.442"/>
<path style="fill:#FFFFFF;" d="M411.927,411.927H118.691c21.721,0,38.788,17.067,38.788,38.788
	c0,21.721-17.067,38.788-38.788,38.788h293.236c21.721,0,38.788-17.067,38.788-38.788
	C450.715,428.994,433.648,411.927,411.927,411.927z"/>
<path style="fill:#193651;" d="M411.927,496.485H118.691c-3.879,0-6.982-3.103-6.982-6.982c0-3.879,3.103-6.982,6.982-6.982
	c17.067,0,31.806-13.964,31.806-31.806c0-17.067-13.964-31.806-31.806-31.806c-3.879,0-6.982-3.103-6.982-6.982
	s3.103-6.982,6.982-6.982h293.236c25.6,0,45.77,20.945,45.77,45.77S437.527,496.485,411.927,496.485z M152.048,482.521h259.879
	c17.067,0,31.806-13.964,31.806-31.806c0-17.067-13.964-31.806-31.806-31.806H152.048c7.758,8.533,12.412,19.394,12.412,31.806
	S159.806,473.988,152.048,482.521z"/>
<rect x="66.715" y="114.036" style="fill:#FFFFFF;" width="286.255" height="297.115"/>
<path style="fill:#193651;" d="M66.715,418.909c-1.552,0-3.879-0.776-5.43-2.327c-1.552-1.552-2.327-3.103-2.327-5.43V114.036
	c0-3.879,3.103-6.982,6.982-6.982h286.255c3.879,0,6.982,3.103,6.982,6.982v297.115c0,3.879-3.103,6.982-6.982,6.982L66.715,418.909
	z M74.473,121.794v283.152h271.515V121.794H74.473z"/>
<rect x="95.418" y="142.739" style="fill:#2EA2DB;" width="228.848" height="240.485"/>
<path style="fill:#F16051;" d="M411.927,114.036H352.97v297.115h58.958c21.721,0,38.788,17.067,38.788,38.788V152.824
	C450.715,131.879,433.648,114.036,411.927,114.036z"/>
<path style="fill:#193651;" d="M450.715,457.697c-3.879,0-6.982-3.103-6.982-6.982c0-17.067-13.964-31.806-31.806-31.806H352.97
	c-3.879,0-6.982-3.103-6.982-6.982V114.036c0-3.879,3.103-6.982,6.982-6.982h58.958c25.6,0,45.77,20.945,45.77,45.77v297.115
	C457.697,454.594,454.594,457.697,450.715,457.697z M359.952,404.945h51.976c12.412,0,23.273,4.655,31.806,12.412V153.6
	c0-17.067-13.964-31.806-31.806-31.806h-51.976V404.945z"/>
<path style="fill:#FFFFFF;" d="M422.012,384c-3.103-0.776-6.982-0.776-10.085-0.776h-30.255V142.739h30.255
	c5.43,0,10.085,4.655,10.085,10.085V384z"/>
<g>
	<path style="fill:#193651;" d="M398.739,457.697H158.255c-3.879,0-6.982-3.103-6.982-6.982s3.103-6.982,6.982-6.982h240.485
		c3.879,0,6.982,3.103,6.982,6.982C405.721,454.594,402.618,457.697,398.739,457.697z"/>
	<rect x="394.861" y="315.733" style="fill:#193651;" width="13.964" height="13.964"/>
</g>
<g>
	<rect x="394.861" y="190.836" style="fill:#193651;" width="13.964" height="13.964"/>
	<rect x="394.861" y="232.727" style="fill:#193651;" width="13.964" height="13.964"/>
	<rect x="394.861" y="274.618" style="fill:#193651;" width="13.964" height="13.964"/>
</g>
<path style="fill:#FFFFFF;" d="M306.424,141.188c0-55.079-45.77-98.521-100.848-96.194c-47.321,2.327-86.885,40.339-91.539,86.885
	c-3.879,36.461,13.188,69.042,41.115,88.436c7.758,5.43,12.412,13.964,12.412,23.273v65.164h86.109v-65.164
	c0-9.309,3.879-17.842,11.636-23.273C290.133,203.248,306.424,174.545,306.424,141.188z"/>
<path style="fill:#193651;" d="M252.897,316.509h-86.109c-3.879,0-6.982-3.103-6.982-6.982v-65.164
	c0-6.982-3.103-13.964-9.309-17.842c-30.255-21.721-47.321-57.406-43.442-94.642c4.655-50.424,47.321-90.764,97.745-93.091
	c58.958-3.103,108.606,44.994,108.606,103.176c0,34.133-17.067,65.939-44.994,85.333c-5.43,3.879-8.533,10.085-8.533,17.067v65.164
	C259.879,312.63,256.776,316.509,252.897,316.509z M174.545,301.77h71.37v-58.182c0-11.636,5.43-22.497,14.739-28.703
	c24.048-17.067,38.788-44.218,38.788-72.921c0-50.424-42.667-91.539-93.867-89.212c-44.218,1.552-79.903,36.461-84.558,79.903
	c-3.103,32.582,10.861,62.836,38.012,82.23c9.309,6.982,15.515,17.842,15.515,29.479V301.77z"/>
<path style="fill:#FDBF5E;" d="M210.23,69.042c-1.552,0-2.327,0-3.879,0c-34.909,1.552-65.164,30.255-68.267,65.164
	c-2.327,26.376,8.533,51.2,30.255,66.715c13.964,10.085,22.497,25.6,22.497,43.442v14.739h38.012v-14.739
	c0-17.067,8.533-33.358,21.721-42.667c19.394-13.188,31.03-35.685,31.03-59.733C282.376,101.624,249.794,69.042,210.23,69.042z"/>
<path style="fill:#FFFFFF;" d="M187.733,308.752v6.206c0,12.412,10.085,22.497,22.497,22.497s22.497-10.085,22.497-22.497v-6.206
	H187.733z"/>
<path style="fill:#193651;" d="M232.727,301.77h-44.994c-3.879,0-6.982,3.103-6.982,6.982v6.206
	c0,16.291,13.188,29.479,29.479,29.479s29.479-13.188,29.479-29.479v-6.206C239.709,304.873,236.606,301.77,232.727,301.77z
	 M210.23,330.473c-7.758,0-14.739-6.206-15.515-13.964h30.255C224.97,324.267,217.988,330.473,210.23,330.473z"/>
<path style="fill:#FFFFFF;" d="M250.57,140.412L250.57,140.412c9.309,10.085,1.552,26.376-11.636,26.376H224.97v-14.739
	C224.97,138.861,241.261,131.103,250.57,140.412L250.57,140.412z"/>
<path style="fill:#193651;" d="M238.933,173.77H224.97c-3.879,0-6.982-3.103-6.982-6.982v-14.739
	c0-13.188,10.085-23.273,23.273-23.273c5.43,0,10.861,2.327,14.739,6.206l0.776,0.776c6.206,6.206,7.758,15.515,4.655,24.048
	C256.776,168.339,248.242,173.77,238.933,173.77z M231.952,159.806h6.982c4.655,0,6.982-3.103,8.533-5.43
	c0.776-1.552,1.552-5.43-1.552-8.533c-1.552-1.552-3.103-2.327-5.43-2.327c-4.655,0-8.533,3.879-8.533,9.309L231.952,159.806
	L231.952,159.806z"/>
<path style="fill:#FFFFFF;" d="M169.115,140.412L169.115,140.412c-9.309,10.085-1.552,26.376,11.636,26.376h14.739v-14.739
	C195.491,138.861,179.2,131.103,169.115,140.412L169.115,140.412z"/>
<g>
	<path style="fill:#193651;" d="M195.491,173.77h-14.739c-9.309,0-17.842-5.43-21.721-13.964s-1.552-17.067,3.879-24.048
		l0.776-0.776c3.879-3.879,9.309-6.206,14.739-6.206c12.412,0,23.273,10.085,23.273,23.273v14.739
		C202.473,170.667,199.37,173.77,195.491,173.77z M179.2,143.515c-1.552,0-3.879,0.776-4.655,2.327
		c-3.103,3.103-2.327,6.982-1.552,8.533c0.776,2.327,3.879,5.43,8.533,5.43h6.982v-6.982
		C188.509,147.394,183.855,143.515,179.2,143.515z"/>
	<path style="fill:#193651;" d="M224.97,266.085c-3.879,0-6.982-3.103-6.982-6.982V173.77h-14.739v84.558
		c0,3.879-3.103,6.982-6.982,6.982s-6.982-3.103-6.982-6.982v-91.539c0-3.879,3.103-6.982,6.982-6.982h28.703
		c3.879,0,6.982,3.103,6.982,6.982v91.539C231.952,262.982,228.848,266.085,224.97,266.085z"/>
	<path style="fill:#193651;" d="M266.085,266.085H153.6c-3.879,0-6.982-3.103-6.982-6.982c0-3.879,3.103-6.982,6.982-6.982h112.485
		c3.879,0,6.982,3.103,6.982,6.982C273.067,262.982,269.964,266.085,266.085,266.085z"/>
	<path style="fill:#193651;" d="M266.085,290.909H153.6c-3.879,0-6.982-3.103-6.982-6.982s3.103-6.982,6.982-6.982h112.485
		c3.879,0,6.982,3.103,6.982,6.982S269.964,290.909,266.085,290.909z"/>
</g>
<g>
</g>
<g>
</g>
<g>
</g>
<g>
</g>
<g>
</g>
<g>
</g>
<g>
</g>
<g>
</g>
<g>
</g>
<g>
</g>
<g>
</g>
<g>
</g>
<g>
</g>
<g>
</g>
<g>
</g>
</svg>
