<?xml version="1.0" encoding="iso-8859-1"?>
<!-- Generator: Adobe Illustrator 19.0.0, SVG Export Plug-In . SVG Version: 6.00 Build 0)  -->
<svg version="1.1" id="Layer_1" xmlns="http://www.w3.org/2000/svg" xmlns:xlink="http://www.w3.org/1999/xlink" x="0px" y="0px"
	 viewBox="0 0 392.663 392.663" style="enable-background:new 0 0 392.663 392.663;" xml:space="preserve">
<path style="fill:#FFFFFF;" d="M115.254,21.786c-6.012,0-10.925,4.848-10.925,10.925v124.703h183.79V32.711
	c0-6.012-4.848-10.925-10.925-10.925H115.254z"/>
<path style="fill:#56ACE0;" d="M288.119,32.711c0-6.012-4.848-10.925-10.925-10.925H115.254c-6.012,0-10.925,4.848-10.925,10.925
	v124.703h183.79V32.711z"/>
<path style="fill:#FFFFFF;" d="M361.04,179.265H31.472c-6.077,0-10.925,5.689-9.438,11.895l40.275,172.089
	c1.034,4.396,4.978,7.499,9.438,7.499h248.954c4.59,0,8.404-3.103,9.438-7.499l40.275-172.089
	C372.03,185.147,367.375,179.265,361.04,179.265z"/>
<path style="fill:#FFC10D;" d="M46.858,201.051l4.396,18.941H95.99c6.012,0,10.925,4.848,10.925,10.925
	c0,6.012-4.848,10.925-10.925,10.925H56.361l3.297,14.222h16.743c6.012,0,10.925,4.848,10.925,10.925
	c0,6.012-4.848,10.925-10.925,10.925H64.765l16.614,71.176h229.818l34.586-147.911L46.858,201.051L46.858,201.051z"/>
<g>
	<path style="fill:#194F82;" d="M257.8,102.529H134.648c-6.012,0-10.925,4.848-10.925,10.925c0,6.012,4.848,10.925,10.925,10.925
		H257.8c6.012,0,10.925-4.848,10.925-10.925C268.725,107.378,263.876,102.529,257.8,102.529z"/>
	<path style="fill:#194F82;" d="M257.8,54.949H134.648c-6.012,0-10.925,4.848-10.925,10.925c0,6.077,4.848,10.925,10.925,10.925
		H257.8c6.012,0,10.925-4.848,10.925-10.925C268.725,59.798,263.876,54.949,257.8,54.949z"/>
	<path style="fill:#194F82;" d="M232.006,264.081h-24.889v-24.889c0-6.012-4.848-10.925-10.925-10.925s-10.925,4.848-10.925,10.925
		v24.889h-24.889c-6.012,0-10.925,4.848-10.925,10.925s4.848,10.925,10.925,10.925h24.954v24.889
		c0,6.012,4.848,10.925,10.925,10.925s10.925-4.848,10.925-10.925v-24.889h24.889c6.012,0,10.925-4.848,10.925-10.925
		C242.931,268.994,238.018,264.081,232.006,264.081z"/>
</g>
<g>
	<path style="fill:#FFFFFF;" d="M50.866,79.192v78.287h31.677V69.43h-21.98C55.198,69.43,50.866,73.762,50.866,79.192z"/>
	<path style="fill:#FFFFFF;" d="M341.646,157.479v-47.903c0-5.301-4.331-9.632-9.632-9.632h-22.044v57.535H341.646z"/>
</g>
<path style="fill:#194F82;" d="M363.432,157.543v-47.968c0-17.39-14.158-31.547-31.547-31.547H309.84V32.711
	C309.84,14.675,295.165,0,277.129,0H115.254C97.218,0,82.543,14.675,82.543,32.711v14.998h-21.98
	c-17.39,0-31.547,14.158-31.547,31.547v78.416c-16.549,1.552-32.711,16.485-28.186,38.529l40.275,172.089
	c3.297,14.287,15.968,24.372,30.707,24.372h248.954c14.675,0,27.345-9.956,30.707-24.372l40.275-172.089
	C396.466,174.481,380.951,158.642,363.432,157.543z M309.969,99.814h22.044c5.301,0,9.632,4.331,9.632,9.632v47.903h-31.677V99.814z
	 M104.394,32.711c0-6.012,4.848-10.925,10.925-10.925h161.939c6.012,0,10.925,4.848,10.925,10.925v124.703h-183.79V32.711z
	 M50.866,79.192c0-5.301,4.331-9.632,9.632-9.632h22.044v87.919H50.866V79.192z M370.478,191.16l-40.275,172.089
	c-1.034,4.396-4.913,7.499-9.438,7.499H71.747c-4.59,0-8.404-3.103-9.438-7.499L22.099,191.16
	c-1.487-6.206,3.426-11.895,9.438-11.895H361.04C367.375,179.265,372.03,185.147,370.478,191.16z"/>
<g>
</g>
<g>
</g>
<g>
</g>
<g>
</g>
<g>
</g>
<g>
</g>
<g>
</g>
<g>
</g>
<g>
</g>
<g>
</g>
<g>
</g>
<g>
</g>
<g>
</g>
<g>
</g>
<g>
</g>
</svg>
