<?xml version="1.0" encoding="iso-8859-1"?>
<!-- Generator: Adobe Illustrator 19.0.0, SVG Export Plug-In . SVG Version: 6.00 Build 0)  -->
<svg version="1.1" id="Capa_1" xmlns="http://www.w3.org/2000/svg" xmlns:xlink="http://www.w3.org/1999/xlink" x="0px" y="0px"
	 viewBox="0 0 512 512" style="enable-background:new 0 0 512 512;" xml:space="preserve">
<path style="fill:#303C42;" d="M444.875,109.792L338.208,3.125c-2-2-4.708-3.125-7.542-3.125h-224C83.135,0,64,19.135,64,42.667
	v426.667C64,492.865,83.135,512,106.667,512h298.667C428.865,512,448,492.865,448,469.333v-352
	C448,114.5,446.875,111.792,444.875,109.792z"/>
<path style="fill:#1E88E5;" d="M149.333,21.333h64V142.74l-27.229-13.615c-3-1.5-6.542-1.5-9.542,0l-27.229,13.615V21.333z"/>
<g>
	<path style="opacity:0.2;fill:#FFFFFF;enable-background:new    ;" d="M160,48.354C160,39.322,167.323,32,176.355,32h36.978V21.333
		h-64V142.74L160,137.406V48.354z"/>
	<path style="fill:#FFFFFF;" d="M405.333,490.667H106.667c-11.76,0-21.333-9.573-21.333-21.333V42.667
		c0-11.76,9.573-21.333,21.333-21.333H128V160c0,3.698,1.917,7.125,5.063,9.073c3.125,1.938,7.063,2.115,10.375,0.469l37.896-18.948
		l37.896,18.948c1.51,0.75,3.135,1.125,4.771,1.125c1.948,0,3.896-0.531,5.604-1.594c3.146-1.948,5.063-5.375,5.063-9.073V21.333
		H320v64C320,108.865,339.135,128,362.667,128h64v341.333C426.667,481.094,417.094,490.667,405.333,490.667z"/>
</g>
<g>
	<path style="fill:#303C42;" d="M373.333,234.667H138.667c-5.896,0-10.667,4.771-10.667,10.667c0,5.896,4.771,10.667,10.667,10.667
		h234.667c5.896,0,10.667-4.771,10.667-10.667C384,239.438,379.229,234.667,373.333,234.667z"/>
	<path style="fill:#303C42;" d="M373.333,320H138.667c-5.896,0-10.667,4.771-10.667,10.667c0,5.896,4.771,10.667,10.667,10.667
		h234.667c5.896,0,10.667-4.771,10.667-10.667C384,324.771,379.229,320,373.333,320z"/>
	<path style="fill:#303C42;" d="M309.333,405.333H138.667c-5.896,0-10.667,4.771-10.667,10.667c0,5.896,4.771,10.667,10.667,10.667
		h170.667c5.896,0,10.667-4.771,10.667-10.667C320,410.104,315.229,405.333,309.333,405.333z"/>
</g>
<path style="fill:#DFE1DF;" d="M341.333,36.417l70.25,70.25h-48.917c-11.76,0-21.333-9.573-21.333-21.333V36.417z"/>
<path style="opacity:0.1;enable-background:new    ;" d="M362.667,91.583c-11.76,0-21.333-9.573-21.333-21.333v15.083
	c0,11.76,9.573,21.333,21.333,21.333h48.917L396.5,91.583H362.667z"/>
<linearGradient id="SVGID_1_" gradientUnits="userSpaceOnUse" x1="-30.1262" y1="641.9972" x2="-25.7481" y2="637.618" gradientTransform="matrix(21.3333 0 0 -21.3333 996.3334 13791.667)">
	<stop  offset="0" style="stop-color:#000000;stop-opacity:0.1"/>
	<stop  offset="1" style="stop-color:#000000;stop-opacity:0"/>
</linearGradient>
<path style="fill:url(#SVGID_1_);" d="M362.667,128c-11.418,0-21.747-4.566-29.411-11.893l93.411,93.411V128H362.667z"/>
<linearGradient id="SVGID_2_" gradientUnits="userSpaceOnUse" x1="-46.4381" y1="639.0643" x2="-23.653" y2="628.4362" gradientTransform="matrix(21.3333 0 0 -21.3333 996.3334 13791.667)">
	<stop  offset="0" style="stop-color:#FFFFFF;stop-opacity:0.2"/>
	<stop  offset="1" style="stop-color:#FFFFFF;stop-opacity:0"/>
</linearGradient>
<path style="fill:url(#SVGID_2_);" d="M444.875,109.792L338.208,3.125c-2-2-4.708-3.125-7.542-3.125h-224
	C83.135,0,64,19.135,64,42.667v426.667C64,492.865,83.135,512,106.667,512h298.667C428.865,512,448,492.865,448,469.333v-352
	C448,114.5,446.875,111.792,444.875,109.792z"/>
<g>
</g>
<g>
</g>
<g>
</g>
<g>
</g>
<g>
</g>
<g>
</g>
<g>
</g>
<g>
</g>
<g>
</g>
<g>
</g>
<g>
</g>
<g>
</g>
<g>
</g>
<g>
</g>
<g>
</g>
</svg>
