<?xml version="1.0" encoding="iso-8859-1"?>
<!-- Generator: Adobe Illustrator 19.0.0, SVG Export Plug-In . SVG Version: 6.00 Build 0)  -->
<svg version="1.1" id="Capa_1" xmlns="http://www.w3.org/2000/svg" xmlns:xlink="http://www.w3.org/1999/xlink" x="0px" y="0px"
	 viewBox="0 0 512.02 512.02" style="enable-background:new 0 0 512.02 512.02;" xml:space="preserve">
<path style="fill:#FF8A8A;" d="M315.763,426.658v76.79l80.348-65.28c27.951-22.73,32.183-63.821,9.445-91.772
	c-0.282-0.341-0.563-0.683-0.845-1.024l-80.416,72.754L315.763,426.658z"/>
<polygon style="fill:#D3D6DB;" points="230.441,324.272 221.909,332.804 187.78,366.933 196.312,375.465 221.909,401.062 
	247.505,426.658 253.589,432.742 273.102,452.255 281.634,460.787 315.763,426.658 324.295,418.126 "/>
<g>
	<path style="fill:#5EC2FF;" d="M12.87,264.547h0.128c-0.247-1.229-0.546-2.44-0.776-3.677
		C12.452,262.098,12.631,263.335,12.87,264.547z"/>
	<path style="fill:#5EC2FF;" d="M351.598,52.624c-12.918,15.366-31.97,24.231-52.046,24.214H133.174
		c-11.783,0-21.33,9.548-21.33,21.33s9.548,21.33,21.33,21.33h110.919c16.493,0,29.863,13.37,29.863,29.863
		s-13.37,29.863-29.863,29.863H69.182c-14.138,0-25.597,11.459-25.597,25.597s11.459,25.597,25.597,25.597h25.597
		c9.428,0,17.064,7.636,17.064,17.064c0,9.428-7.636,17.064-17.064,17.064H13.006c17.03,84.349,83.223,150.124,167.675,166.625
		c14.454,3.029,29.214,4.377,43.983,4.019c5.392,0,10.716-0.307,15.998-0.768l6.826-6.826l-59.708-60.664l34.129-34.129h-85.322
		l73.513-84.008c23.737-27.132,64.973-29.88,92.105-6.135c1.092,0.956,2.142,1.937,3.165,2.961l1.86,1.86l53.872-53.872
		c2.807-2.807,5.759-5.426,8.78-7.952c0.973-0.853,1.962-1.604,2.961-2.398c2.159-1.706,4.36-3.336,6.595-4.88
		c1.143-0.802,2.253-1.63,3.413-2.389c2.756-1.8,5.58-3.473,8.447-5.06c2.082-1.16,4.206-2.21,6.339-3.251
		c0.964-0.469,1.937-0.93,2.909-1.374c7.969-3.677,16.271-6.57,24.795-8.643l0,0C412.108,115.924,386.367,79.253,351.598,52.624z"/>
</g>
<path style="fill:#FF8A8A;" d="M307.23,247.482l-1.86-1.86c-25.494-25.486-66.816-25.486-92.31,0.009
	c-1.024,1.024-2.014,2.082-2.961,3.165l-73.513,84.008h85.322l8.532-8.532L307.23,247.482z"/>
<path style="fill:#D3D6DB;" d="M457.627,153.628c-10.879,0.051-21.714,1.408-32.277,4.036c-8.524,2.09-16.825,4.983-24.795,8.643
	c-0.973,0.444-1.945,0.904-2.909,1.374c-2.133,1.032-4.266,2.099-6.339,3.251c-2.867,1.596-5.699,3.251-8.447,5.06
	c-1.169,0.751-2.278,1.596-3.413,2.389c-2.235,1.561-4.445,3.174-6.595,4.88c-0.998,0.785-1.979,1.587-2.961,2.398
	c-3.02,2.56-5.973,5.119-8.78,7.952l-53.881,53.872l-76.79,76.79l93.854,93.854l80.416-72.754l53.838-48.71
	c28.6-25.878,44.922-62.652,44.922-101.226v-41.808L457.627,153.628L457.627,153.628z M418.149,273.079
	c-18.848,0-34.129-15.281-34.129-34.129s15.281-34.129,34.129-34.129s34.129,15.281,34.129,34.129S436.997,273.079,418.149,273.079z
	"/>
<circle style="fill:#5EC2FF;" cx="418.166" cy="238.916" r="34.129"/>
<g>
	<path style="fill:#FFC145;" d="M9.653,242.96c0,0.188,0,0.384,0,0.572c0.742,7.116,1.817,14.121,3.217,21.015h81.909
		c9.428,0,17.064-7.636,17.064-17.064c0-9.428-7.636-17.064-17.064-17.064H69.182c-14.138,0-25.597-11.459-25.597-25.597
		s11.459-25.597,25.597-25.597h174.91c16.493,0,29.863-13.37,29.863-29.863s-13.37-29.863-29.863-29.863H133.174
		c-11.783,0-21.33-9.548-21.33-21.33s9.548-21.33,21.33-21.33h166.378c20.076,0.017,39.129-8.848,52.046-24.214l0,0
		c-13.481-10.341-28.148-19.035-43.685-25.912l-0.35-0.162c-4.872-2.15-9.863-4.078-14.923-5.862
		c-0.41-0.145-0.811-0.324-1.22-0.469c-4.718-1.63-9.53-3.029-14.394-4.334c-0.785-0.213-1.544-0.486-2.338-0.683
		c-4.539-1.16-9.172-2.082-13.822-2.944c-1.143-0.213-2.244-0.512-3.413-0.7c-4.505-0.759-9.095-1.271-13.703-1.706
		c-1.314-0.137-2.56-0.375-3.916-0.486c-5.904-0.52-11.877-0.785-17.926-0.785c-117.804,0-213.305,95.501-213.305,213.305
		c0,3.66,0.094,7.295,0.273,10.913C9.056,236.211,9.312,239.598,9.653,242.96z"/>
	<path style="fill:#FFC145;" d="M307.23,128.031c0,9.428,7.636,17.064,17.064,17.064h34.129c9.428,0,17.064-7.636,17.064-17.064
		s-7.636-17.064-17.064-17.064h-34.129C314.867,110.967,307.23,118.612,307.23,128.031z"/>
</g>
<rect x="392.569" y="0.048" width="17.064" height="17.064"/>
<rect x="477.891" y="401.028" width="17.064" height="17.064"/>
<rect x="460.827" y="418.092" width="17.064" height="17.064"/>
<rect x="494.956" y="418.092" width="17.064" height="17.064"/>
<rect x="477.891" y="435.156" width="17.064" height="17.064"/>
<path d="M503.471,145.096h-45.844c-9.001,0.026-17.977,0.887-26.817,2.56C389.814,32.24,263.017-28.082,147.602,12.907
	S-28.145,180.701,12.853,296.116c20.656,58.147,64.597,105.057,121.268,129.459l-20.639,20.648l12.065,12.065l26.049-26.049
	c6.945,2.329,14.001,4.3,21.143,5.921l-25.127,25.127l12.065,12.065l33.549-33.549c8.37,1.084,16.791,1.698,25.23,1.834
	l-11.092,11.092l12.065,12.065l24.376-24.376c2.218-0.23,4.437-0.469,6.681-0.759l10.546,10.597l-45.161,45.161l12.065,12.065
	l45.161-45.161l2.5,2.5c3.328,3.328,8.737,3.328,12.065,0l19.564-19.564v56.193c0,4.71,3.822,8.532,8.541,8.524
	c1.954,0,3.848-0.674,5.367-1.903l80.348-65.28c29.615-24.027,36.006-66.679,14.735-98.334l48.045-43.472
	c30.366-27.516,47.704-66.568,47.738-107.548v-41.808C512.003,148.918,508.181,145.096,503.471,145.096z M221.909,17.113
	c41.705-0.043,82.43,12.662,116.712,36.415c-10.802,9.496-24.684,14.752-39.069,14.778H133.174
	c-16.493,0-29.863,13.37-29.863,29.863s13.37,29.863,29.863,29.863h110.919c11.783,0,21.33,9.548,21.33,21.33
	c0,11.783-9.548,21.33-21.33,21.33H69.182c-18.848,0-34.129,15.281-34.129,34.129s15.281,34.129,34.129,34.129h25.597
	c4.71,0,8.532,3.822,8.532,8.532c0,4.71-3.822,8.532-8.532,8.532H20.037C1.07,144.635,75.991,38.981,187.37,20.014
	C198.778,18.077,210.33,17.104,221.909,17.113z M23.62,273.079h71.159c14.138,0,25.597-11.459,25.597-25.597
	s-11.459-25.597-25.597-25.597H69.182c-9.428,0-17.064-7.636-17.064-17.064s7.636-17.064,17.064-17.064h174.91
	c21.203,0,38.395-17.192,38.395-38.395s-17.192-38.395-38.395-38.395H133.174c-7.065,0-12.798-5.734-12.798-12.798
	s5.734-12.798,12.798-12.798h166.378c19.752,0,38.736-7.645,52.968-21.33c28.003,23.216,49.29,53.497,61.645,87.711
	c-22.312,6.979-42.593,19.283-59.103,35.835l-48.036,48.045c-30.707-26.211-76.781-22.849-103.35,7.551L130.17,327.19
	c-3.097,3.549-2.739,8.942,0.811,12.039c1.553,1.357,3.541,2.107,5.606,2.107h64.725l-19.564,19.564
	c-3.328,3.328-3.328,8.737,0,12.065l2.5,2.5l-37.03,37.03C86.119,388.426,40.19,336.627,23.62,273.079z M224.408,318.24
	l-6.032,6.032h-63.019l61.125-69.853c20.085-22.96,54.734-25.929,78.436-6.723L224.408,318.24z M165.229,418.612l31.083-31.083
	l13.532,13.532l-22.602,22.602C179.811,422.401,172.464,420.711,165.229,418.612z M221.909,413.126l13.02,13.02
	c-4.403,0.299-8.754,0.512-13.02,0.512c-4.394,0-8.745-0.188-13.071-0.461L221.909,413.126z M281.634,448.723l-81.79-81.79
	l30.596-30.596l81.79,81.79L281.634,448.723z M411.613,390.431c-0.845,16.041-8.421,30.972-20.878,41.117l-66.44,53.983v-55.34
	l5.853-5.853l73.232-66.261C409.301,367.795,412.168,379.066,411.613,390.431z M494.939,195.436
	c-0.026,36.159-15.324,70.63-42.123,94.904L324.593,406.352l-82.088-82.08l124.63-124.621c23.95-24.078,56.534-37.584,90.492-37.49
	h37.311V195.436z"/>
<path d="M418.149,196.289c-23.557,0-42.661,19.104-42.661,42.661s19.104,42.661,42.661,42.661s42.661-19.104,42.661-42.661
	C460.784,215.401,441.698,196.323,418.149,196.289z M418.149,264.547c-14.138,0-25.597-11.459-25.597-25.597
	s11.459-25.597,25.597-25.597c14.138,0,25.597,11.459,25.597,25.597S432.287,264.547,418.149,264.547z"/>
<rect x="354.854" y="281.587" transform="matrix(-0.7071 0.7071 -0.7071 -0.7071 831.5144 235.8131)" width="24.129" height="17.064"/>
<rect x="320.725" y="315.722" transform="matrix(-0.7071 0.7071 -0.7071 -0.7071 797.3904 318.219)" width="24.129" height="17.064"/>
<rect x="71.524" y="473.562" transform="matrix(-0.7071 0.7071 -0.7071 -0.7071 493.8923 759.6121)" width="36.202" height="17.064"/>
<rect x="115.964" y="486.355" transform="matrix(-0.7071 0.7071 -0.7071 -0.7071 568.4962 754.2955)" width="24.129" height="17.064"/>
<rect x="175.686" y="477.842" transform="matrix(-0.7071 0.7071 -0.7071 -0.7071 664.428 697.5324)" width="24.129" height="17.064"/>
<rect x="477.891" y="34.143" width="17.064" height="17.064"/>
<rect x="460.827" y="51.208" width="17.064" height="17.064"/>
<rect x="494.956" y="51.208" width="17.064" height="17.064"/>
<rect x="477.891" y="68.272" width="17.064" height="17.064"/>
<path d="M324.295,153.628h34.129c14.138,0,25.597-11.459,25.597-25.597s-11.459-25.597-25.597-25.597h-34.129
	c-14.138,0-25.597,11.459-25.597,25.597S310.157,153.628,324.295,153.628z M324.295,119.499h34.129c4.71,0,8.532,3.822,8.532,8.532
	c0,4.71-3.822,8.532-8.532,8.532h-34.129c-4.71,0-8.532-3.822-8.532-8.532C315.763,123.322,319.585,119.499,324.295,119.499z"/>
<rect x="0.071" y="375.431" width="17.064" height="17.064"/>
<rect x="76.878" y="136.529" width="17.064" height="17.064"/>
<rect x="153.668" y="221.851" width="17.064" height="17.064"/>
<g>
</g>
<g>
</g>
<g>
</g>
<g>
</g>
<g>
</g>
<g>
</g>
<g>
</g>
<g>
</g>
<g>
</g>
<g>
</g>
<g>
</g>
<g>
</g>
<g>
</g>
<g>
</g>
<g>
</g>
</svg>
